<svg data-dc-tpl="509" width="200" height="200" viewBox="0 0 96 96" fill="none" aria-label="AnjunaTree mark, canopy">
    <g data-dc-tpl="510" stroke="oklch(0.62 0.02 255)" stroke-width="1.4" stroke-linecap="round">
    <line data-dc-tpl="511" x1="10" y1="86" x2="86" y2="86"></line>
    <line data-dc-tpl="512" x1="24" y1="86" x2="24" y2="90"></line>
    <line data-dc-tpl="513" x1="36" y1="86" x2="36" y2="90"></line>
    <line data-dc-tpl="514" x1="48" y1="86" x2="48" y2="90"></line>
    <line data-dc-tpl="515" x1="60" y1="86" x2="60" y2="90"></line>
    <line data-dc-tpl="516" x1="72" y1="86" x2="72" y2="90"></line>
    </g>
    <line data-dc-tpl="517" x1="48" y1="86" x2="48" y2="58" stroke="oklch(0.96 0.008 250)" stroke-width="3" stroke-linecap="round"></line>
    <g data-dc-tpl="518" fill="oklch(0.96 0.008 250)">
    <circle data-dc-tpl="519" cx="34" cy="52" r="2.6"></circle>
    <circle data-dc-tpl="520" cx="48" cy="50" r="3.4"></circle>
    <circle data-dc-tpl="521" cx="62" cy="52" r="2.6"></circle>
    <circle data-dc-tpl="522" cx="26" cy="41" r="2.2"></circle>
    <circle data-dc-tpl="523" cx="40" cy="40" r="3.4"></circle>
    <circle data-dc-tpl="524" cx="56" cy="40" r="3"></circle>
    <circle data-dc-tpl="525" cx="70" cy="41" r="2.2"></circle>
    <circle data-dc-tpl="526" cx="34" cy="30" r="2.6"></circle>
    <circle data-dc-tpl="527" cx="48" cy="29" r="2.2"></circle>
    <circle data-dc-tpl="528" cx="62" cy="30" r="3"></circle>
    </g>
    <circle data-dc-tpl="529" cx="48" cy="18" r="4.6" fill="oklch(0.78 0.14 178)"></circle>
</svg>